<svg width="24" height="24" fill="none" xmlns="http://www.w3.org/2000/svg" preserveAspectRatio="xMinYMid meet" viewBox="0 0 24 24"><defs><style>.cls-1{fill:#000;stroke-width:0}.cls-2{fill:none;stroke:#000;stroke-miterlimit:10}</style></defs><path class="cls-2" d="M8.2 18.4c.8-1.8.5-2.3.3-4-5.2-2.4-4.1-8.2.3-9.6.4 0 .6 0 1-.2 1.9 0 3.6.9 4.5 2.4l2 3.9-1.5.2c.9 1.1 1.1 1-.4 1.6l1.2.9c0 .3-.2.5-.8.6.6 1.5.5 2.2-1.8 2 0 .7.1 1.4.4 2.2H8.2z"/><path class="cls-1" d="M17.5 14.6l-.5-.5c.7-.6.8-1.7 0-2.4l.5-.5c.9.9.8 2.4-.2 3.4h.2z"/><path class="cls-1" d="M17.9 15c1.1-1.1 1.2-2.9.2-4l.5-.5c1.3 1.5 1.2 3.7-.2 5l-.5-.5z"/><path class="cls-1" d="M18.7 15.8c1.4-.9 2.3-3.3.3-5.8l.5-.5c1.8 1.9 1.7 4.9-.2 6.6l-.2.2-.5-.5h.1zM5.3 14.1c.4 0 .7 0 1.1.2 0 .1-.3.2-.4.3-.2 0-.4-.1-.7-.1-.6 0-1.1.2-1.4.6-.4.4-.6.9-.6 1.4s.2 1.1.6 1.4c.4.3.9.6 1.4.6s1.1-.2 1.4-.6c.4-.4.6-.9.6-1.4v-.4c0-.1.2-.3.3-.4v.8c0 .7-.3 1.3-.7 1.7s-1 .7-1.7.7-1.3-.3-1.7-.7c-.9-.9-.9-2.5 0-3.4.4-.4 1-.7 1.7-.7zm1 2.2l-.9 1.5v.2l-.2-.2c0-.3-.3-.6-.5-.8-.2-.2-.4-.5-.7-.6v-.2h.6s.2.1.3.2l.2.2c.2-.3.4-.7.7-.9.3-.3.5-.6.8-.9s.6 0 .6 0"/></svg>